<?xml version="1.0" encoding="UTF-8"?>
<svg xmlns="http://www.w3.org/2000/svg" xmlns:xlink="http://www.w3.org/1999/xlink" width="2250" height="2250" viewBox="0 0 2250 2250">
<rect x="-225" y="-225" width="2700" height="2700" fill="rgb(90.234375%, 90.234375%, 90.234375%)" fill-opacity="1"/>
<path fill-rule="nonzero" fill="rgb(9.812927%, 46.263123%, 82.421875%)" fill-opacity="1" d="M 1124.941406 571.789062 C 1070.710938 571.800781 1026.761719 615.75 1026.761719 669.96875 C 1026.761719 724.191406 1070.710938 768.148438 1124.941406 768.148438 C 1179.160156 768.148438 1223.121094 724.191406 1223.121094 669.96875 C 1223.121094 615.75 1179.160156 571.800781 1124.941406 571.789062 Z M 1124.941406 571.789062 "/>
<path fill-rule="nonzero" fill="rgb(12.939453%, 58.789062%, 95.3125%)" fill-opacity="1" d="M 850.039062 652.378906 C 833.699219 652.378906 818.03125 658.871094 806.480469 670.421875 C 794.929688 681.96875 788.4375 697.640625 788.4375 713.980469 C 788.4375 730.308594 794.929688 745.980469 806.480469 757.53125 C 818.03125 769.089844 833.699219 775.570312 850.039062 775.570312 C 866.375 775.570312 882.042969 769.089844 893.59375 757.53125 C 905.148438 745.980469 911.636719 730.308594 911.636719 713.980469 C 911.636719 697.640625 905.144531 681.96875 893.59375 670.421875 C 882.042969 658.871094 866.375 652.378906 850.039062 652.378906 Z M 850.039062 652.378906 "/>
<path fill-rule="nonzero" fill="rgb(12.939453%, 58.789062%, 95.3125%)" fill-opacity="1" d="M 1399.839844 652.378906 C 1383.5 652.378906 1367.839844 658.871094 1356.28125 670.421875 C 1344.730469 681.96875 1338.238281 697.640625 1338.238281 713.980469 C 1338.238281 730.308594 1344.730469 745.980469 1356.28125 757.53125 C 1367.839844 769.089844 1383.5 775.570312 1399.839844 775.570312 C 1416.179688 775.570312 1431.839844 769.089844 1443.390625 757.53125 C 1454.949219 745.980469 1461.441406 730.308594 1461.441406 713.980469 C 1461.441406 697.640625 1454.941406 681.96875 1443.390625 670.421875 C 1431.839844 658.871094 1416.179688 652.378906 1399.839844 652.378906 Z M 1399.839844 652.378906 "/>
<path fill-rule="nonzero" fill="rgb(12.939453%, 58.789062%, 95.3125%)" fill-opacity="1" d="M 850.039062 797.308594 C 801.929688 797.308594 763.191406 836.03125 763.191406 884.140625 L 763.191406 1118.859375 C 816.546875 1102.648438 875.105469 1090.109375 936.882812 1081.679688 L 936.882812 884.140625 C 936.882812 836.03125 898.148438 797.308594 850.039062 797.308594 Z M 850.039062 797.308594 "/>
<path fill-rule="nonzero" fill="rgb(12.939453%, 58.789062%, 95.3125%)" fill-opacity="1" d="M 1399.839844 797.308594 C 1351.730469 797.308594 1313 836.03125 1313 884.140625 L 1313 1081.839844 C 1374.78125 1090.300781 1433.339844 1102.859375 1486.679688 1119.109375 L 1486.679688 884.140625 C 1486.679688 836.03125 1447.949219 797.308594 1399.839844 797.308594 Z M 1399.839844 797.308594 "/>
<path fill-rule="nonzero" fill="rgb(9.812927%, 46.263123%, 82.421875%)" fill-opacity="1" d="M 1124.941406 802.800781 C 1048.25 802.800781 986.527344 864.519531 986.527344 941.210938 L 986.527344 1076.03125 C 803.195312 1094.058594 646.824219 1146.898438 558.652344 1220.621094 C 711.007812 1169.730469 913.878906 1141.300781 1124.941406 1141.269531 C 1336.378906 1141.390625 1539.480469 1170.011719 1691.730469 1221.128906 C 1603.640625 1147.210938 1447.039062 1094.210938 1263.351562 1076.148438 L 1263.351562 941.210938 C 1263.351562 864.519531 1201.621094 802.800781 1124.941406 802.800781 Z M 1124.5 1069.070312 C 1114.378906 1069.191406 1104.269531 1069.421875 1094.171875 1069.75 C 1104.269531 1069.421875 1114.378906 1069.191406 1124.5 1069.070312 Z M 1188.03125 1070.640625 C 1189.488281 1070.71875 1190.949219 1070.808594 1192.421875 1070.898438 C 1190.949219 1070.808594 1189.488281 1070.71875 1188.03125 1070.640625 Z M 1052.109375 1071.089844 C 1048.339844 1071.328125 1044.570312 1071.589844 1040.820312 1071.859375 C 1044.570312 1071.589844 1048.339844 1071.328125 1052.109375 1071.089844 Z M 1052.109375 1071.089844 "/>
<path fill-rule="nonzero" fill="rgb(12.939453%, 58.789062%, 95.3125%)" fill-opacity="1" d="M 1124.941406 1182.539062 C 877.105469 1182.628906 642.726562 1221.828125 487.5 1289.148438 C 683.28125 1266.65625 902.316406 1254.839844 1124.941406 1254.75 C 1347.53125 1254.78125 1566.609375 1266.539062 1762.5 1288.96875 C 1607.140625 1221.710938 1372.730469 1182.578125 1124.941406 1182.539062 Z M 1124.941406 1182.539062 "/>
<path fill-rule="nonzero" fill="rgb(0%, 0%, 0%)" fill-opacity="1" d="M 685.453125 1523.867188 C 683.875 1540.589844 677.703125 1553.652344 666.9375 1563.054688 C 656.171875 1572.382812 641.851562 1577.046875 623.984375 1577.046875 C 611.496094 1577.046875 600.476562 1574.105469 590.933594 1568.21875 C 581.457031 1562.261719 574.136719 1553.832031 568.96875 1542.921875 C 563.800781 1532.011719 561.109375 1519.34375 560.890625 1504.917969 L 560.890625 1490.277344 C 560.890625 1475.492188 563.511719 1462.464844 568.75 1451.199219 C 573.988281 1439.929688 581.488281 1431.246094 591.25 1425.144531 C 601.082031 1419.046875 612.421875 1415.996094 625.269531 1415.996094 C 642.566406 1415.996094 656.488281 1420.695312 667.039062 1430.097656 C 677.589844 1439.5 683.726562 1452.777344 685.449219 1469.929688 L 658.320312 1469.929688 C 657.027344 1458.664062 653.726562 1450.550781 648.410156 1445.601562 C 643.171875 1440.574219 635.457031 1438.0625 625.261719 1438.0625 C 613.421875 1438.0625 604.304688 1442.40625 597.917969 1451.089844 C 591.605469 1459.703125 588.375 1472.371094 588.230469 1489.09375 L 588.230469 1502.980469 C 588.230469 1519.917969 591.246094 1532.835938 597.277344 1541.734375 C 603.378906 1550.636719 612.277344 1555.085938 623.976562 1555.085938 C 634.667969 1555.085938 642.707031 1552.679688 648.089844 1547.871094 C 653.476562 1543.0625 656.882812 1535.0625 658.316406 1523.863281 Z M 685.453125 1523.867188 "/>
<path fill-rule="nonzero" fill="rgb(0%, 0%, 0%)" fill-opacity="1" d="M 850.484375 1500.613281 C 850.484375 1515.972656 847.832031 1529.464844 842.523438 1541.089844 C 837.214844 1552.644531 829.605469 1561.546875 819.699219 1567.789062 C 809.867188 1573.960938 798.527344 1577.046875 785.679688 1577.046875 C 772.976562 1577.046875 761.636719 1573.960938 751.660156 1567.789062 C 741.757812 1561.546875 734.078125 1552.683594 728.621094 1541.199219 C 723.238281 1529.714844 720.507812 1516.472656 720.4375 1501.472656 L 720.4375 1492.644531 C 720.4375 1477.359375 723.132812 1463.867188 728.515625 1452.167969 C 733.972656 1440.46875 741.617188 1431.535156 751.449219 1425.363281 C 761.351562 1419.117188 772.691406 1415.996094 785.46875 1415.996094 C 798.242188 1415.996094 809.546875 1419.082031 819.378906 1425.253906 C 829.28125 1431.355469 836.925781 1440.183594 842.308594 1451.738281 C 847.6875 1463.21875 850.417969 1476.605469 850.492188 1491.894531 Z M 823.25 1492.429688 C 823.25 1475.0625 819.945312 1461.75 813.339844 1452.492188 C 806.808594 1443.230469 797.515625 1438.601562 785.457031 1438.601562 C 773.6875 1438.601562 764.464844 1443.230469 757.789062 1452.492188 C 751.183594 1461.675781 747.808594 1474.703125 747.667969 1491.570312 L 747.667969 1500.613281 C 747.667969 1517.835938 751.007812 1531.152344 757.683594 1540.550781 C 764.429688 1549.953125 773.761719 1554.65625 785.675781 1554.65625 C 797.734375 1554.65625 806.992188 1550.0625 813.449219 1540.875 C 819.980469 1531.6875 823.242188 1518.269531 823.242188 1500.613281 Z M 823.25 1492.429688 "/>
<path fill-rule="nonzero" fill="rgb(0%, 0%, 0%)" fill-opacity="1" d="M 928.855469 1418.148438 L 974.070312 1538.292969 L 1019.179688 1418.148438 L 1054.378906 1418.148438 L 1054.378906 1574.894531 L 1027.25 1574.894531 L 1027.25 1523.21875 L 1029.941406 1454.105469 L 983.652344 1574.894531 L 964.167969 1574.894531 L 917.984375 1454.214844 L 920.675781 1523.21875 L 920.675781 1574.894531 L 893.546875 1574.894531 L 893.546875 1418.148438 Z M 928.855469 1418.148438 "/>
<path fill-rule="nonzero" fill="rgb(0%, 0%, 0%)" fill-opacity="1" d="M 1129.410156 1516.652344 L 1129.410156 1574.894531 L 1102.179688 1574.894531 L 1102.179688 1418.148438 L 1162.140625 1418.148438 C 1179.648438 1418.148438 1193.539062 1422.707031 1203.808594 1431.820312 C 1214.140625 1440.9375 1219.308594 1452.992188 1219.308594 1467.992188 C 1219.308594 1483.351562 1214.25 1495.300781 1204.128906 1503.84375 C 1194.078125 1512.382812 1179.980469 1516.652344 1161.820312 1516.652344 Z M 1129.410156 1494.800781 L 1162.140625 1494.800781 C 1171.828125 1494.800781 1179.21875 1492.539062 1184.320312 1488.019531 C 1189.421875 1483.425781 1191.960938 1476.820312 1191.960938 1468.210938 C 1191.960938 1459.738281 1189.378906 1452.992188 1184.210938 1447.96875 C 1179.039062 1442.875 1171.941406 1440.253906 1162.898438 1440.109375 L 1129.421875 1440.109375 Z M 1129.410156 1494.800781 "/>
<path fill-rule="nonzero" fill="rgb(0%, 0%, 0%)" fill-opacity="1" d="M 1327.5 1538.398438 L 1266.78125 1538.398438 L 1254.070312 1574.894531 L 1225.761719 1574.894531 L 1284.96875 1418.148438 L 1309.410156 1418.148438 L 1368.730469 1574.894531 L 1340.308594 1574.894531 Z M 1274.421875 1516.4375 L 1319.859375 1516.4375 L 1297.140625 1451.414062 Z M 1274.421875 1516.4375 "/>
<path fill-rule="nonzero" fill="rgb(0%, 0%, 0%)" fill-opacity="1" d="M 1526.660156 1574.894531 L 1499.421875 1574.894531 L 1429.550781 1463.6875 L 1429.550781 1574.894531 L 1402.308594 1574.894531 L 1402.308594 1418.148438 L 1429.550781 1418.148438 L 1499.628906 1529.789062 L 1499.628906 1418.148438 L 1526.660156 1418.148438 Z M 1526.660156 1574.894531 "/>
<path fill-rule="nonzero" fill="rgb(0%, 0%, 0%)" fill-opacity="1" d="M 1622.890625 1492.429688 L 1658.960938 1418.148438 L 1689.109375 1418.148438 L 1636.570312 1517.191406 L 1636.570312 1574.894531 L 1609.230469 1574.894531 L 1609.230469 1517.191406 L 1556.578125 1418.148438 L 1586.828125 1418.148438 Z M 1622.890625 1492.429688 "/>
<path fill-rule="nonzero" fill="rgb(0%, 0%, 0%)" fill-opacity="1" d="M 592.960938 1646.730469 L 606.378906 1619.097656 L 617.589844 1619.097656 L 598.046875 1655.941406 L 598.046875 1677.40625 L 587.875 1677.40625 L 587.875 1655.941406 L 568.292969 1619.097656 L 579.542969 1619.097656 Z M 592.960938 1646.730469 "/>
<path fill-rule="nonzero" fill="rgb(0%, 0%, 0%)" fill-opacity="1" d="M 690.429688 1649.773438 C 690.429688 1655.488281 689.441406 1660.507812 687.464844 1664.832031 C 685.484375 1669.128906 682.65625 1672.441406 678.972656 1674.761719 C 675.3125 1677.058594 671.09375 1678.207031 666.320312 1678.207031 C 661.59375 1678.207031 657.375 1677.058594 653.664062 1674.761719 C 649.980469 1672.441406 647.125 1669.140625 645.089844 1664.871094 C 643.089844 1660.597656 642.078125 1655.671875 642.050781 1650.09375 L 642.050781 1646.808594 C 642.050781 1641.121094 643.050781 1636.101562 645.046875 1631.75 C 647.074219 1627.398438 649.917969 1624.074219 653.578125 1621.78125 C 657.261719 1619.457031 661.480469 1618.296875 666.234375 1618.296875 C 670.988281 1618.296875 675.195312 1619.445312 678.847656 1621.738281 C 682.53125 1624.007812 685.375 1627.292969 687.378906 1631.589844 C 689.378906 1635.863281 690.390625 1640.84375 690.421875 1646.527344 Z M 680.300781 1646.730469 C 680.300781 1640.269531 679.074219 1635.316406 676.617188 1631.871094 C 674.191406 1628.429688 670.734375 1626.707031 666.246094 1626.707031 C 661.871094 1626.707031 658.441406 1628.429688 655.957031 1631.871094 C 653.503906 1635.289062 652.246094 1640.136719 652.191406 1646.410156 L 652.191406 1649.773438 C 652.191406 1656.179688 653.433594 1661.132812 655.914062 1664.632812 C 658.425781 1668.128906 661.898438 1669.878906 666.328125 1669.878906 C 670.816406 1669.878906 674.261719 1668.167969 676.660156 1664.75 C 679.085938 1661.332031 680.300781 1656.339844 680.300781 1649.773438 Z M 680.300781 1646.730469 "/>
<path fill-rule="nonzero" fill="rgb(0%, 0%, 0%)" fill-opacity="1" d="M 764.351562 1619.097656 L 764.351562 1658.0625 C 764.351562 1664.257812 762.363281 1669.167969 758.386719 1672.800781 C 754.4375 1676.40625 749.164062 1678.207031 742.566406 1678.207031 C 735.890625 1678.207031 730.589844 1676.429688 726.667969 1672.878906 C 722.742188 1669.304688 720.777344 1664.351562 720.777344 1658.023438 L 720.777344 1619.097656 L 730.867188 1619.097656 L 730.867188 1658.101562 C 730.867188 1662 731.855469 1664.976562 733.832031 1667.03125 C 735.8125 1669.089844 738.722656 1670.117188 742.5625 1670.117188 C 750.359375 1670.117188 754.257812 1666.003906 754.257812 1657.78125 L 754.257812 1619.097656 Z M 764.351562 1619.097656 "/>
<path fill-rule="nonzero" fill="rgb(0%, 0%, 0%)" fill-opacity="1" d="M 817.726562 1654.9375 L 806.433594 1654.9375 L 806.433594 1677.40625 L 796.304688 1677.40625 L 796.304688 1619.097656 L 816.808594 1619.097656 C 823.535156 1619.097656 828.726562 1620.605469 832.386719 1623.621094 C 836.046875 1626.640625 837.878906 1631.003906 837.878906 1636.71875 C 837.878906 1640.617188 836.933594 1643.886719 835.039062 1646.53125 C 833.164062 1649.144531 830.550781 1651.160156 827.191406 1652.574219 L 840.285156 1676.886719 L 840.285156 1677.402344 L 829.433594 1677.402344 Z M 806.433594 1646.808594 L 816.851562 1646.808594 C 820.265625 1646.808594 822.933594 1645.957031 824.855469 1644.246094 C 826.777344 1642.511719 827.738281 1640.148438 827.738281 1637.160156 C 827.738281 1634.035156 826.84375 1631.621094 825.054688 1629.910156 C 823.292969 1628.203125 820.652344 1627.320312 817.125 1627.265625 L 806.429688 1627.265625 Z M 806.433594 1646.808594 "/>
<path fill-rule="nonzero" fill="rgb(0%, 0%, 0%)" fill-opacity="1" d="M 949.992188 1627.265625 L 931.808594 1627.265625 L 931.808594 1677.40625 L 921.753906 1677.40625 L 921.753906 1627.265625 L 903.734375 1627.265625 L 903.734375 1619.097656 L 949.988281 1619.097656 Z M 949.992188 1627.265625 "/>
<path fill-rule="nonzero" fill="rgb(0%, 0%, 0%)" fill-opacity="1" d="M 1006.609375 1663.828125 L 984.027344 1663.828125 L 979.300781 1677.40625 L 968.769531 1677.40625 L 990.796875 1619.097656 L 999.886719 1619.097656 L 1021.949219 1677.40625 L 1011.378906 1677.40625 Z M 986.871094 1655.660156 L 1003.769531 1655.660156 L 995.324219 1631.472656 Z M 986.871094 1655.660156 "/>
<path fill-rule="nonzero" fill="rgb(0%, 0%, 0%)" fill-opacity="1" d="M 1093.589844 1669.835938 C 1091.480469 1672.585938 1088.558594 1674.667969 1084.820312 1676.085938 C 1081.078125 1677.5 1076.828125 1678.207031 1072.078125 1678.207031 C 1067.191406 1678.207031 1062.871094 1677.097656 1059.109375 1674.882812 C 1055.339844 1672.667969 1052.429688 1669.503906 1050.378906 1665.390625 C 1048.351562 1661.253906 1047.289062 1656.433594 1047.210938 1650.933594 L 1047.210938 1646.371094 C 1047.210938 1637.558594 1049.320312 1630.683594 1053.539062 1625.746094 C 1057.75 1620.777344 1063.640625 1618.296875 1071.199219 1618.296875 C 1077.691406 1618.296875 1082.839844 1619.898438 1086.660156 1623.101562 C 1090.480469 1626.304688 1092.769531 1630.925781 1093.550781 1636.957031 L 1083.621094 1636.957031 C 1082.5 1629.9375 1078.429688 1626.425781 1071.398438 1626.425781 C 1066.871094 1626.425781 1063.410156 1628.070312 1061.03125 1631.351562 C 1058.679688 1634.609375 1057.46875 1639.402344 1057.390625 1645.730469 L 1057.390625 1650.214844 C 1057.390625 1656.515625 1058.710938 1661.414062 1061.359375 1664.914062 C 1064.03125 1668.382812 1067.730469 1670.117188 1072.449219 1670.117188 C 1077.628906 1670.117188 1081.320312 1668.945312 1083.5 1666.59375 L 1083.5 1655.179688 L 1071.488281 1655.179688 L 1071.488281 1647.492188 L 1093.601562 1647.492188 Z M 1093.589844 1669.835938 "/>
<path fill-rule="nonzero" fill="rgb(0%, 0%, 0%)" fill-opacity="1" d="M 1136.039062 1669.316406 L 1162.5 1669.316406 L 1162.5 1677.40625 L 1125.898438 1677.40625 L 1125.898438 1619.097656 L 1136.03125 1619.097656 Z M 1136.039062 1669.316406 "/>
<path fill-rule="nonzero" fill="rgb(0%, 0%, 0%)" fill-opacity="1" d="M 1191.980469 1677.40625 L 1202.070312 1677.40625 L 1202.070312 1619.097656 L 1191.980469 1619.097656 Z M 1191.980469 1677.40625 "/>
<path fill-rule="nonzero" fill="rgb(0%, 0%, 0%)" fill-opacity="1" d="M 1281.949219 1677.40625 L 1271.820312 1677.40625 L 1245.828125 1636.035156 L 1245.828125 1677.40625 L 1235.699219 1677.40625 L 1235.699219 1619.097656 L 1245.828125 1619.097656 L 1271.898438 1660.625 L 1271.898438 1619.097656 L 1281.960938 1619.097656 Z M 1281.949219 1677.40625 "/>
<path fill-rule="nonzero" fill="rgb(0%, 0%, 0%)" fill-opacity="1" d="M 1349.191406 1651.375 L 1325.238281 1651.375 L 1325.238281 1669.316406 L 1353.230469 1669.316406 L 1353.230469 1677.40625 L 1315.109375 1677.40625 L 1315.109375 1619.097656 L 1352.949219 1619.097656 L 1352.949219 1627.265625 L 1325.238281 1627.265625 L 1325.238281 1643.367188 L 1349.191406 1643.367188 Z M 1349.191406 1651.375 "/>
<path fill-rule="nonzero" fill="rgb(0%, 0%, 0%)" fill-opacity="1" d="M 1470.558594 1677.40625 L 1460.46875 1677.40625 L 1460.46875 1651.496094 L 1434.398438 1651.496094 L 1434.398438 1677.40625 L 1424.269531 1677.40625 L 1424.269531 1619.097656 L 1434.398438 1619.097656 L 1434.398438 1643.367188 L 1460.46875 1643.367188 L 1460.46875 1619.097656 L 1470.558594 1619.097656 Z M 1470.558594 1677.40625 "/>
<path fill-rule="nonzero" fill="rgb(0%, 0%, 0%)" fill-opacity="1" d="M 1537.75 1651.375 L 1513.808594 1651.375 L 1513.808594 1669.316406 L 1541.800781 1669.316406 L 1541.800781 1677.40625 L 1503.671875 1677.40625 L 1503.671875 1619.097656 L 1541.519531 1619.097656 L 1541.519531 1627.265625 L 1513.808594 1627.265625 L 1513.808594 1643.367188 L 1537.75 1643.367188 Z M 1537.75 1651.375 "/>
<path fill-rule="nonzero" fill="rgb(0%, 0%, 0%)" fill-opacity="1" d="M 1592.648438 1654.9375 L 1581.359375 1654.9375 L 1581.359375 1677.40625 L 1571.230469 1677.40625 L 1571.230469 1619.097656 L 1591.730469 1619.097656 C 1598.460938 1619.097656 1603.648438 1620.605469 1607.308594 1623.621094 C 1610.960938 1626.640625 1612.789062 1631.003906 1612.789062 1636.71875 C 1612.789062 1640.617188 1611.839844 1643.886719 1609.941406 1646.53125 C 1608.070312 1649.144531 1605.449219 1651.160156 1602.089844 1652.574219 L 1615.191406 1676.886719 L 1615.191406 1677.402344 L 1604.339844 1677.402344 Z M 1581.359375 1646.808594 L 1591.769531 1646.808594 C 1595.191406 1646.808594 1597.859375 1645.957031 1599.78125 1644.246094 C 1601.699219 1642.511719 1602.660156 1640.148438 1602.660156 1637.160156 C 1602.660156 1634.035156 1601.769531 1631.621094 1599.980469 1629.910156 C 1598.210938 1628.203125 1595.570312 1627.320312 1592.050781 1627.265625 L 1581.351562 1627.265625 Z M 1581.359375 1646.808594 "/>
<path fill-rule="nonzero" fill="rgb(0%, 0%, 0%)" fill-opacity="1" d="M 1677.660156 1651.375 L 1653.71875 1651.375 L 1653.71875 1669.316406 L 1681.710938 1669.316406 L 1681.710938 1677.40625 L 1643.578125 1677.40625 L 1643.578125 1619.097656 L 1681.429688 1619.097656 L 1681.429688 1627.265625 L 1653.71875 1627.265625 L 1653.71875 1643.367188 L 1677.660156 1643.367188 Z M 1677.660156 1651.375 "/>
</svg>
