<?xml version="1.0" ?><!DOCTYPE svg  PUBLIC '-//W3C//DTD SVG 1.1//EN'  'http://www.w3.org/Graphics/SVG/1.1/DTD/svg11.dtd'><svg height="8.4666mm" style="shape-rendering:geometricPrecision; text-rendering:geometricPrecision; image-rendering:optimizeQuality; fill-rule:evenodd; clip-rule:evenodd" version="1.1" viewBox="0 0 846.66 846.66" width="8.4666mm" xml:space="preserve" xmlns="http://www.w3.org/2000/svg" xmlns:xlink="http://www.w3.org/1999/xlink"><defs><style type="text/css">
   <![CDATA[
    .fil0 {fill:black;fill-rule:nonzero}
   ]]>
  </style></defs><g id="Layer_x0020_1"><path class="fil0" d="M335.48 747.2c-101.62,0 -193.91,-57.54 -238.95,-148.05 -57.12,-50.7 -89.81,-123.14 -89.81,-199.54 0,-147.32 119.43,-266.75 266.74,-266.75 101.19,0 193.49,57.26 238.68,147.73 57.4,50.78 90.08,123.12 90.08,199.86 0,147.31 -119.43,266.75 -266.74,266.75zm81.79 -606.88c-26.87,0 -26.87,-40.86 0,-40.86l184.64 0c26.87,0 26.87,40.86 0,40.86l-184.64 0zm156.15 540.52c-26.87,0 -26.87,-40.86 0,-40.86l184.64 0c26.87,0 26.87,40.86 0,40.86l-184.64 0zm61.73 -180.17c-26.87,0 -26.87,-40.86 0,-40.86l184.64 0c26.87,0 26.87,40.86 0,40.86l-184.64 0zm-61.73 -180.17c-26.87,0 -26.87,-40.86 0,-40.86l184.64 0c26.87,0 26.87,40.86 0,40.86l-184.64 0zm-504.22 175.86c-0.31,-5.26 -0.47,-10.57 -0.47,-15.91 0,-147.32 119.43,-266.75 266.75,-266.75 29.37,0 57.63,4.75 84.06,13.52 -40.92,-34.7 -92.3,-53.5 -146.08,-53.5 -124.75,0 -225.89,101.13 -225.89,225.89 0,33.98 7.26,66 21.63,96.75zm397.76 4.52c-26.87,0 -26.87,-40.86 0,-40.86l36.96 0c26.87,0 26.87,40.86 0,40.86l-36.96 0zm-299.93 0c-26.87,0 -26.87,-40.86 0,-40.86l36.96 0c26.87,0 26.87,40.86 0,40.86l-36.96 0zm148.02 -191.76c0,-26.87 40.85,-26.87 40.85,0l0 17.11c39.7,9.44 68.09,45.01 68.09,86.14 0,26.87 -40.86,26.87 -40.86,0 0,-26.38 -21.28,-47.67 -47.66,-47.67 -26.37,0 -47.65,21.3 -47.65,47.67 0,26.32 21.34,47.66 47.65,47.66 48.88,0 88.52,39.63 88.52,88.51 0,41.13 -28.39,76.7 -68.09,86.14l0 17.09c0,26.87 -40.85,26.87 -40.85,0l0 -17.08c-39.6,-9.35 -68.09,-45.06 -68.09,-86.15 0,-26.87 40.86,-26.87 40.86,0 0,26.03 21.39,48.01 47.65,47.66 26.27,0.35 47.66,-21.63 47.66,-47.66 0,-26.32 -21.34,-47.66 -47.66,-47.66 -48.87,0 -88.51,-39.63 -88.51,-88.51 0,-41.08 28.49,-76.8 68.09,-86.15l0 -17.1zm20.43 397.22c124.75,0 225.89,-101.14 225.89,-225.89 0,-124.76 -101.14,-225.89 -225.89,-225.89 -124.76,0 -225.9,101.13 -225.9,225.89 0,124.76 101.14,225.89 225.9,225.89z"/></g></svg>